<!DOCTYPE svg PUBLIC "-//W3C//DTD SVG 20010904//EN" "http://www.w3.org/TR/2001/REC-SVG-20010904/DTD/svg10.dtd">
<svg version="1.0" xmlns="http://www.w3.org/2000/svg" width="250px" height="250px" viewBox="0 0 2500 2500" preserveAspectRatio="xMidYMid meet">
<g id="layer101" fill="#fea602" stroke="none">
 <path d="M264 2317 c-26 -18 -63 -55 -81 -81 l-33 -48 0 -938 0 -938 33 -48 c18 -26 55 -63 81 -81 l48 -33 938 0 938 0 48 33 c26 18 63 55 81 81 l33 48 0 938 0 938 -33 48 c-18 26 -55 63 -81 81 l-48 33 -938 0 -938 0 -48 -33z"/>
 </g>
<g id="layer102" fill="#fffcf2" stroke="none">
 <path d="M992 1689 c-124 -21 -205 -81 -236 -177 -25 -74 -9 -144 46 -207 22 -25 53 -52 69 -61 16 -8 29 -18 29 -22 0 -4 -16 -18 -36 -31 -84 -57 -112 -187 -60 -276 79 -133 304 -175 443 -82 64 43 95 100 95 176 0 72 -17 107 -78 159 l-46 39 33 21 c78 48 129 130 129 206 0 88 -64 182 -151 223 -36 17 -163 46 -180 42 -2 -1 -28 -5 -57 -10z m119 -120 c47 -16 77 -46 91 -91 23 -78 -30 -159 -122 -187 -35 -10 -45 -9 -80 9 -55 28 -80 71 -80 137 0 44 5 58 31 88 43 49 98 64 160 44z m8 -433 c74 -39 88 -147 27 -205 -30 -28 -95 -38 -136 -21 -47 19 -70 55 -70 109 0 40 5 52 33 78 53 52 98 64 146 39z"/>
 <path d="M1742 1689 c-114 -19 -201 -89 -244 -198 -19 -48 -22 -74 -22 -186 1 -139 15 -198 68 -289 50 -85 163 -172 266 -204 44 -14 181 -31 198 -24 9 3 12 23 10 66 l-3 61 -65 7 c-86 9 -122 21 -181 59 -55 35 -106 101 -116 149 l-6 32 58 -33 c52 -29 67 -33 134 -33 65 0 84 5 131 30 193 103 181 427 -20 529 -25 13 -64 26 -86 30 -21 4 -46 8 -54 10 -8 1 -39 -1 -68 -6z m118 -137 c94 -51 107 -232 21 -302 -29 -25 -45 -30 -89 -30 -62 0 -102 18 -132 60 -19 27 -22 41 -18 104 2 58 9 81 30 113 45 69 121 91 188 55z"/>
 <path d="M346 1653 c9 -16 38 -58 62 -96 l45 -67 -57 -85 c-31 -47 -56 -87 -56 -90 0 -3 21 -5 48 -5 47 0 47 1 86 60 21 33 40 60 42 60 1 0 17 -27 35 -60 l32 -60 48 0 c27 0 49 3 49 6 0 4 -25 42 -55 85 -30 43 -55 81 -55 84 0 3 25 44 55 90 30 47 55 90 55 95 0 6 -22 10 -48 10 l-48 0 -38 -67 c-30 -52 -41 -64 -48 -53 -5 8 -22 39 -39 68 l-29 52 -51 0 -51 0 18 -27z"/>
 </g>

</svg>