<?xml version="1.0" encoding="UTF-8" standalone="no"?>
<svg
   xmlns:dc="http://purl.org/dc/elements/1.1/"
   xmlns:cc="http://creativecommons.org/ns#"
   xmlns:rdf="http://www.w3.org/1999/02/22-rdf-syntax-ns#"
   xmlns:svg="http://www.w3.org/2000/svg"
   xmlns="http://www.w3.org/2000/svg"
   xmlns:sodipodi="http://sodipodi.sourceforge.net/DTD/sodipodi-0.dtd"
   xmlns:inkscape="http://www.inkscape.org/namespaces/inkscape"
   width="3603.7pt"
   height="3971.21pt"
   viewBox="0 0 3603.7 3971.21"
   version="1.2"
   id="svg14"
   sodipodi:docname="nodejs.svg"
   inkscape:version="0.92.4 5da689c313, 2019-01-14">
  <metadata
     id="metadata18">
    <rdf:RDF>
      <cc:Work
         rdf:about="">
        <dc:format>image/svg+xml</dc:format>
        <dc:type
           rdf:resource="http://purl.org/dc/dcmitype/StillImage" />
        <dc:title></dc:title>
      </cc:Work>
    </rdf:RDF>
  </metadata>
  <sodipodi:namedview
     pagecolor="#ffffff"
     bordercolor="#666666"
     borderopacity="1"
     objecttolerance="10"
     gridtolerance="10"
     guidetolerance="10"
     inkscape:pageopacity="0"
     inkscape:pageshadow="2"
     inkscape:window-width="2560"
     inkscape:window-height="1381"
     id="namedview16"
     showgrid="false"
     inkscape:pagecheckerboard="true"
     inkscape:zoom="0.17828319"
     inkscape:cx="1563.8361"
     inkscape:cy="1919.9173"
     inkscape:window-x="0"
     inkscape:window-y="31"
     inkscape:window-maximized="1"
     inkscape:current-layer="svg14" />
  <defs
     id="defs5">
    <clipPath
       id="clip1">
      <path
         d="M 0 0 L 3603.699219 0 L 3603.699219 3971.210938 L 0 3971.210938 Z M 0 0 "
         id="path2" />
    </clipPath>
  </defs>
  <path
     style="fill:#fffff0;fill-opacity:1;stroke:#000000;stroke-width:0.75px;stroke-linecap:butt;stroke-linejoin:miter;stroke-opacity:0.1837607"
     d="M 138.21802,3076.7454 1710.5458,3938.3395 3453.7748,2911.0989 3474.8088,1043.284 1792.0926,100.96296 143.03087,1026.4568 130.4105,2894.2717 Z"
     id="path4551"
     inkscape:connector-curvature="0"
     sodipodi:nodetypes="cccccccc" />
  <g
     id="surface739">
    <g
       clip-path="url(#clip1)"
       clip-rule="nonzero"
       id="g9">
      <path
         style=" stroke:none;fill-rule:nonzero;fill:rgb(50.537109%,80.482483%,22.192383%);fill-opacity:1;"
         d="M 1639.25 42.375 C 1737.71875 -14 1865.980469 -14.242188 1964.359375 42.375 C 2459.320312 322.042969 2954.429688 601.269531 3449.292969 881.128906 C 3542.359375 933.558594 3604.632812 1037.148438 3603.683594 1144.398438 L 3603.683594 2827.027344 C 3604.390625 2938.71875 3535.976562 3044.78125 3437.769531 3096.019531 C 2944.4375 3374.160156 2451.351562 3652.628906 1958.121094 3930.769531 C 1857.621094 3988.230469 1726.789062 3983.800781 1629.421875 3921.628906 C 1481.519531 3835.890625 1333.371094 3750.578125 1185.460938 3664.921875 C 1155.230469 3646.898438 1121.160156 3632.558594 1099.820312 3603.261719 C 1118.679688 3577.828125 1152.421875 3574.660156 1179.828125 3563.558594 C 1241.5625 3543.917969 1298.269531 3512.410156 1354.980469 3481.828125 C 1369.320312 3472.019531 1386.832031 3475.78125 1400.578125 3484.558594 C 1527.050781 3557.078125 1652.410156 3631.699219 1779.300781 3703.519531 C 1806.371094 3719.152344 1833.78125 3698.402344 1856.921875 3685.5 C 2341.03125 3411.890625 2825.742188 3139.320312 3309.742188 2865.628906 C 3327.695312 2857 3337.613281 2837.957031 3336.152344 2818.308594 C 3336.492188 2263.25 3336.222656 1708.089844 3336.320312 1153.019531 C 3338.367188 1130.730469 3325.480469 1110.238281 3305.304688 1101.101562 C 2813.707031 824.238281 2322.332031 546.960938 1830.800781 270.027344 C 1813.371094 258.039062 1790.363281 258.015625 1772.898438 269.953125 C 1281.359375 546.960938 790.085938 824.507812 298.554688 1101.347656 C 278.472656 1110.484375 264.992188 1130.65625 267.382812 1153.019531 C 267.464844 1708.089844 267.382812 2263.25 267.382812 2818.398438 C 265.636719 2838.027344 276.304688 2856.667969 294.113281 2865.117188 C 425.28125 2939.5 556.617188 3013.347656 687.871094 3087.480469 C 761.816406 3127.277344 852.601562 3150.929688 934.070312 3120.441406 C 1005.960938 3094.648438 1056.347656 3021.289062 1054.980469 2944.957031 C 1055.660156 2393.128906 1054.640625 1841.21875 1055.492188 1289.480469 C 1053.699219 1264.96875 1076.929688 1244.75 1100.75 1247.039062 C 1163.78125 1246.625 1226.878906 1246.210938 1289.910156 1247.210938 C 1316.210938 1246.625 1334.320312 1273.011719 1331.070312 1297.691406 C 1330.8125 1852.996094 1331.742188 2408.339844 1330.640625 2963.648438 C 1330.8125 3111.648438 1270.007812 3272.691406 1133.109375 3345.109375 C 964.464844 3432.46875 756.015625 3413.9375 589.402344 3330.171875 C 445.167969 3258.179688 307.523438 3173.21875 165.847656 3096.097656 C 67.390625 3045.140625 -0.679688 2938.648438 0.0117188 2827.039062 L 0.0117188 1144.398438 C -1.019531 1034.910156 63.714844 929.441406 159.691406 877.789062 C 652.9375 599.417969 1146.101562 320.847656 1639.25 42.375 "
         id="path7" />
    </g>
    <path
       style=" stroke:none;fill-rule:nonzero;fill:rgb(50.537109%,80.482483%,22.192383%);fill-opacity:1;"
       d="M 2069.546875 1207.949219 C 2284.683594 1194.089844 2514.972656 1199.738281 2708.558594 1305.707031 C 2858.4375 1386.933594 2941.523438 1557.378906 2944.179688 1723.882812 C 2940 1746.339844 2916.503906 1758.726562 2895.066406 1757.1875 C 2832.65625 1757.113281 2770.226562 1758.042969 2707.816406 1756.777344 C 2681.328125 1757.800781 2665.949219 1733.375 2662.625 1709.96875 C 2644.679688 1630.300781 2601.234375 1551.398438 2526.246094 1512.964844 C 2411.140625 1455.328125 2277.660156 1458.242188 2152.132812 1459.433594 C 2060.503906 1464.300781 1961.964844 1472.230469 1884.320312 1526.117188 C 1824.726562 1566.945312 1806.625 1649.339844 1827.894531 1715.710938 C 1847.953125 1763.355469 1902.949219 1778.734375 1947.957031 1792.886719 C 2207.207031 1860.703125 2481.925781 1853.960938 2736.234375 1943.175781 C 2841.515625 1979.5625 2944.515625 2050.277344 2980.550781 2160.515625 C 3027.691406 2308.265625 3007.039062 2484.855469 2901.902344 2603.464844 C 2816.664062 2701.0625 2692.527344 2754.191406 2568.691406 2783.042969 C 2403.96875 2819.773438 2233.007812 2820.714844 2065.722656 2804.402344 C 1908.410156 2786.460938 1744.714844 2745.144531 1623.285156 2637.960938 C 1519.433594 2547.792969 1468.71875 2407.304688 1473.757812 2271.714844 C 1474.957031 2248.816406 1497.757812 2232.84375 1519.695312 2234.722656 C 1582.546875 2234.214844 1645.40625 2234.042969 1708.253906 2234.8125 C 1733.363281 2233.011719 1751.976562 2254.714844 1753.265625 2278.375 C 1764.855469 2354.285156 1793.386719 2433.953125 1859.578125 2478.953125 C 1987.316406 2561.375 2147.617188 2555.734375 2293.875 2558.035156 C 2415.058594 2552.664062 2551.101562 2551.03125 2649.992188 2470.945312 C 2702.167969 2425.253906 2717.625 2348.824219 2703.523438 2283.0625 C 2688.257812 2227.554688 2630.171875 2201.683594 2580.300781 2184.773438 C 2324.375 2103.8125 2046.589844 2133.195312 1793.136719 2041.640625 C 1690.234375 2005.273438 1590.738281 1936.527344 1551.207031 1830.816406 C 1496.046875 1681.195312 1521.316406 1496.15625 1637.457031 1381.546875 C 1750.6875 1267.554688 1914.152344 1223.644531 2069.546875 1207.929688 L 2069.546875 1207.949219 "
       id="path11" />
  </g>
</svg>
