<?xml version="1.0" encoding="UTF-8" standalone="no"?>
<svg
   xmlns:dc="http://purl.org/dc/elements/1.1/"
   xmlns:cc="http://creativecommons.org/ns#"
   xmlns:rdf="http://www.w3.org/1999/02/22-rdf-syntax-ns#"
   xmlns:svg="http://www.w3.org/2000/svg"
   xmlns="http://www.w3.org/2000/svg"
   xmlns:sodipodi="http://sodipodi.sourceforge.net/DTD/sodipodi-0.dtd"
   xmlns:inkscape="http://www.inkscape.org/namespaces/inkscape"
   id="Layer_1"
   viewBox="0 0 767.8 768"
   width="2499"
   height="2500"
   version="1.1"
   sodipodi:docname="spring.svg"
   inkscape:version="0.92.4 5da689c313, 2019-01-14">
  <metadata
     id="metadata3912">
    <rdf:RDF>
      <cc:Work
         rdf:about="">
        <dc:format>image/svg+xml</dc:format>
        <dc:type
           rdf:resource="http://purl.org/dc/dcmitype/StillImage" />
        <dc:title></dc:title>
      </cc:Work>
    </rdf:RDF>
  </metadata>
  <defs
     id="defs3910" />
  <sodipodi:namedview
     pagecolor="#ffffff"
     bordercolor="#666666"
     borderopacity="1"
     objecttolerance="10"
     gridtolerance="10"
     guidetolerance="10"
     inkscape:pageopacity="0"
     inkscape:pageshadow="2"
     inkscape:window-width="2560"
     inkscape:window-height="1381"
     id="namedview3908"
     showgrid="false"
     inkscape:pagecheckerboard="true"
     inkscape:zoom="0.26700352"
     inkscape:cx="1354.4259"
     inkscape:cy="1052.1156"
     inkscape:window-x="0"
     inkscape:window-y="31"
     inkscape:window-maximized="1"
     inkscape:current-layer="Layer_1" />
  <style
     id="style3903">.st0{fill:#77bc1f}</style>
  <path
     class="st0"
     d="M698.3 40c-10.8 25.8-24.5 50.3-41 72.8C585.1 40.6 487.1 0 385 0 173.8 0 0 174 0 385.5 0 491 43.2 592 119.6 664.8l14.2 12.6c69.4 58.5 157.3 90.7 248 90.7 200.8 0 369.6-157.4 383.9-358 10.5-98.2-18.3-222.4-67.4-370.1zm-524 627c-6.2 7.7-15.7 12.2-25.6 12.2-18.1 0-32.9-14.9-32.9-33s14.9-33 32.9-33c7.5 0 14.9 2.6 20.7 7.4 14.1 11.4 16.3 32.3 4.9 46.4zm522.4-115.4c-95 126.7-297.9 84-428 90.1 0 0-23.1 1.4-46.3 5.2 0 0 8.7-3.7 20-8 91.3-31.8 134.5-38 190-66.5 104.5-53.2 207.8-169.6 229.3-290.7C621.9 398.2 501.3 498.3 391.4 539c-75.3 27.8-211.3 54.8-211.3 54.8l-5.5-2.9C82 545.8 79.2 345.1 247.5 280.3c73.7-28.4 144.2-12.8 223.8-31.8 85-20.2 183.3-84 223.3-167.2 44.8 133.1 98.7 341.5 2.1 470.3z"
     id="path3905" />
  <path
     style="fill:#ffffff;stroke:#ffffff;stroke-width:3.74526906"
     d="m 457.03077,2205.3506 c -64.32313,-17.9739 -96.02584,-88.4902 -66.41974,-147.7372 12.5764,-25.1676 27.13771,-39.4756 50.94073,-50.0543 50.16437,-22.2944 106.36653,-3.164 133.8497,45.5607 10.33533,18.3235 11.6117,23.9089 11.55403,50.5612 -0.0694,32.0591 -5.95662,48.3488 -26.14496,72.3413 -21.19517,25.189 -69.61944,38.8738 -103.77976,29.3283 z"
     id="path3914"
     inkscape:connector-curvature="0"
     transform="matrix(0.3072429,0,0,0.3072429,0,-0.05362145)" />
  <path
     style="fill:#ffffff;stroke:#ffffff;stroke-width:3.74526906"
     d="m 776.1564,2086.5267 c 37.41898,-14.7846 140.28669,-48.3017 280.6171,-91.4328 191.945,-58.995 259.3658,-84.0315 348.6934,-129.4862 139.2238,-70.8446 260.1722,-161.9281 385.6917,-290.4559 154.7435,-158.4523 267.7668,-337.7663 327.8529,-520.1461 18.037,-54.7479 37.6086,-132.00081 34.2839,-135.32545 -0.751,-0.75104 -7.7755,15.06426 -15.6099,35.14515 -112.4135,288.134 -395.5914,574.78 -730.4513,739.3972 -149.233,73.363 -339.8616,131.3426 -679.7663,206.7506 -147.74005,32.7762 -136.61153,31.5423 -163.24138,18.0996 -96.5753,-48.751 -163.52106,-150.5911 -191.31916,-291.041 -10.27361,-51.9074 -9.29365,-158.5469 1.9774,-215.1822 12.56622,-63.1433 27.87985,-108.0416 56.90311,-166.8352 64.56528,-130.7926 165.6872,-230.9012 302.46392,-299.43282 126.99828,-63.6322 226.0232,-84.4011 465.12001,-97.55164 123.0789,-6.76946 204.7548,-14.3582 265.9141,-24.70682 293.3349,-49.63471 595.9281,-241.65788 748.9863,-475.30067 12.8196,-19.56903 28.4233,-45.68236 34.6749,-58.02962 13.5819,-26.82474 7.3552,-39.13003 50.211,99.22758 142.2597,459.27781 177.2317,822.74569 106.1496,1103.22579 -50.6132,199.7128 -149.7444,349.918 -295.6417,447.9612 -167.3845,112.4827 -397.66,158.598 -756.7382,151.5455 -350.5684,-6.8853 -476.04437,-7.1006 -534.03792,-0.9164 -73.74367,7.8636 -75.88289,7.5878 -42.73348,-5.5098 z"
     id="path3916"
     inkscape:connector-curvature="0"
     transform="matrix(0.3072429,0,0,0.3072429,0,-0.05362145)" />
</svg>
